<svg width="154" height="154" viewBox="0 0 154 154" fill="none" xmlns="http://www.w3.org/2000/svg">
<path d="M154 0H0V154H154V0Z" fill="#222222"/>
<path d="M154 0H0V154H154V0Z" fill="#242424"/>
<path d="M34.25 34.25H119.75V119.75H34.25V34.25ZM43.75 43.75V53.25H53.25V43.75H43.75ZM62.75 43.75V72.25H91.25V43.75H62.75ZM100.75 43.75V53.25H110.25V43.75H100.75ZM110.25 62.75H100.75V72.25H110.25V62.75ZM110.25 81.75H100.75V91.25H110.25V81.75ZM110.25 100.75H100.75V110.25H110.25V100.75ZM91.25 110.25V81.75H62.75V110.25H91.25ZM53.25 110.25V100.75H43.75V110.25H53.25ZM43.75 91.25H53.25V81.75H43.75V91.25ZM43.75 72.25H53.25V62.75H43.75V72.25Z" fill="white"/>
</svg>
